<mxfile host="Electron" modified="2024-06-02T20:16:16.611Z" agent="Mozilla/5.0 (Macintosh; Intel Mac OS X 10_15_7) AppleWebKit/537.36 (KHTML, like Gecko) draw.io/24.0.4 Chrome/120.0.6099.109 Electron/28.1.0 Safari/537.36" etag="5S95QSDhklI7D8IxPpJ-" version="24.0.4" type="device">
  <diagram id="GNhx2L0P-7sAovvKlGaX" name="Page-1">
    <mxGraphModel dx="1952" dy="1143" grid="1" gridSize="10" guides="1" tooltips="1" connect="1" arrows="1" fold="1" page="1" pageScale="1" pageWidth="1100" pageHeight="850" math="0" shadow="0">
      <root>
        <mxCell id="0" />
        <mxCell id="1" parent="0" />
        <mxCell id="31-5WdiVfHJe6tgLGW2Q-1" value="files" style="whiteSpace=wrap;html=1;align=center;" vertex="1" parent="1">
          <mxGeometry x="210" y="210" width="100" height="40" as="geometry" />
        </mxCell>
        <mxCell id="31-5WdiVfHJe6tgLGW2Q-67" style="edgeStyle=none;rounded=0;orthogonalLoop=1;jettySize=auto;html=1;exitX=1;exitY=1;exitDx=0;exitDy=0;endArrow=none;endFill=0;" edge="1" parent="1" source="31-5WdiVfHJe6tgLGW2Q-2" target="31-5WdiVfHJe6tgLGW2Q-1">
          <mxGeometry relative="1" as="geometry" />
        </mxCell>
        <mxCell id="31-5WdiVfHJe6tgLGW2Q-2" value="number" style="ellipse;whiteSpace=wrap;html=1;align=center;fontStyle=4;" vertex="1" parent="1">
          <mxGeometry x="90" y="140" width="100" height="40" as="geometry" />
        </mxCell>
        <mxCell id="31-5WdiVfHJe6tgLGW2Q-74" style="edgeStyle=none;rounded=0;orthogonalLoop=1;jettySize=auto;html=1;exitX=0;exitY=1;exitDx=0;exitDy=0;entryX=0;entryY=0.5;entryDx=0;entryDy=0;endArrow=none;endFill=0;" edge="1" parent="1" source="31-5WdiVfHJe6tgLGW2Q-3" target="31-5WdiVfHJe6tgLGW2Q-73">
          <mxGeometry relative="1" as="geometry" />
        </mxCell>
        <mxCell id="31-5WdiVfHJe6tgLGW2Q-89" value="N" style="edgeLabel;html=1;align=center;verticalAlign=middle;resizable=0;points=[];" vertex="1" connectable="0" parent="31-5WdiVfHJe6tgLGW2Q-74">
          <mxGeometry x="0.6792" y="-1" relative="1" as="geometry">
            <mxPoint x="9" as="offset" />
          </mxGeometry>
        </mxCell>
        <mxCell id="31-5WdiVfHJe6tgLGW2Q-75" style="edgeStyle=none;rounded=0;orthogonalLoop=1;jettySize=auto;html=1;exitX=1;exitY=1;exitDx=0;exitDy=0;entryX=1;entryY=0.5;entryDx=0;entryDy=0;endArrow=none;endFill=0;" edge="1" parent="1" source="31-5WdiVfHJe6tgLGW2Q-3" target="31-5WdiVfHJe6tgLGW2Q-73">
          <mxGeometry relative="1" as="geometry" />
        </mxCell>
        <mxCell id="31-5WdiVfHJe6tgLGW2Q-90" value="1" style="edgeLabel;html=1;align=center;verticalAlign=middle;resizable=0;points=[];" vertex="1" connectable="0" parent="31-5WdiVfHJe6tgLGW2Q-75">
          <mxGeometry x="0.6098" relative="1" as="geometry">
            <mxPoint x="-14" y="-1" as="offset" />
          </mxGeometry>
        </mxCell>
        <mxCell id="31-5WdiVfHJe6tgLGW2Q-3" value="folders" style="whiteSpace=wrap;html=1;align=center;" vertex="1" parent="1">
          <mxGeometry x="20" y="370" width="100" height="40" as="geometry" />
        </mxCell>
        <mxCell id="31-5WdiVfHJe6tgLGW2Q-66" style="edgeStyle=none;rounded=0;orthogonalLoop=1;jettySize=auto;html=1;exitX=1;exitY=0.5;exitDx=0;exitDy=0;entryX=0;entryY=0.75;entryDx=0;entryDy=0;endArrow=none;endFill=0;" edge="1" parent="1" source="31-5WdiVfHJe6tgLGW2Q-4" target="31-5WdiVfHJe6tgLGW2Q-3">
          <mxGeometry relative="1" as="geometry" />
        </mxCell>
        <mxCell id="31-5WdiVfHJe6tgLGW2Q-4" value="name" style="ellipse;whiteSpace=wrap;html=1;align=center;" vertex="1" parent="1">
          <mxGeometry x="-100" y="390" width="100" height="40" as="geometry" />
        </mxCell>
        <mxCell id="31-5WdiVfHJe6tgLGW2Q-68" style="edgeStyle=none;rounded=0;orthogonalLoop=1;jettySize=auto;html=1;exitX=0.5;exitY=1;exitDx=0;exitDy=0;endArrow=none;endFill=0;" edge="1" parent="1" source="31-5WdiVfHJe6tgLGW2Q-5" target="31-5WdiVfHJe6tgLGW2Q-1">
          <mxGeometry relative="1" as="geometry" />
        </mxCell>
        <mxCell id="31-5WdiVfHJe6tgLGW2Q-5" value="filetype" style="ellipse;whiteSpace=wrap;html=1;align=center;" vertex="1" parent="1">
          <mxGeometry x="210" y="140" width="100" height="40" as="geometry" />
        </mxCell>
        <mxCell id="31-5WdiVfHJe6tgLGW2Q-6" value="Assuming that is is ok that the number and filetype is separate (makes it easier to work with)" style="shape=note;size=10;whiteSpace=wrap;html=1;" vertex="1" parent="1">
          <mxGeometry x="150" y="50" width="190" height="70" as="geometry" />
        </mxCell>
        <mxCell id="31-5WdiVfHJe6tgLGW2Q-69" style="edgeStyle=none;rounded=0;orthogonalLoop=1;jettySize=auto;html=1;exitX=0;exitY=1;exitDx=0;exitDy=0;endArrow=none;endFill=0;" edge="1" parent="1" source="31-5WdiVfHJe6tgLGW2Q-7" target="31-5WdiVfHJe6tgLGW2Q-1">
          <mxGeometry relative="1" as="geometry" />
        </mxCell>
        <mxCell id="31-5WdiVfHJe6tgLGW2Q-7" value="name" style="ellipse;whiteSpace=wrap;html=1;align=center;" vertex="1" parent="1">
          <mxGeometry x="320" y="150" width="100" height="40" as="geometry" />
        </mxCell>
        <mxCell id="31-5WdiVfHJe6tgLGW2Q-37" style="edgeStyle=none;rounded=0;orthogonalLoop=1;jettySize=auto;html=1;exitX=0.5;exitY=0;exitDx=0;exitDy=0;endArrow=none;endFill=0;" edge="1" parent="1" source="31-5WdiVfHJe6tgLGW2Q-8" target="31-5WdiVfHJe6tgLGW2Q-34">
          <mxGeometry relative="1" as="geometry" />
        </mxCell>
        <mxCell id="31-5WdiVfHJe6tgLGW2Q-83" value="1" style="edgeLabel;html=1;align=center;verticalAlign=middle;resizable=0;points=[];" vertex="1" connectable="0" parent="31-5WdiVfHJe6tgLGW2Q-37">
          <mxGeometry x="0.7063" y="-1" relative="1" as="geometry">
            <mxPoint x="18" y="-4" as="offset" />
          </mxGeometry>
        </mxCell>
        <mxCell id="31-5WdiVfHJe6tgLGW2Q-41" style="edgeStyle=none;rounded=0;orthogonalLoop=1;jettySize=auto;html=1;exitX=1;exitY=0;exitDx=0;exitDy=0;endArrow=none;endFill=0;" edge="1" parent="1" source="31-5WdiVfHJe6tgLGW2Q-8">
          <mxGeometry relative="1" as="geometry">
            <mxPoint x="580.5555555555557" y="450.2777777777778" as="targetPoint" />
          </mxGeometry>
        </mxCell>
        <mxCell id="31-5WdiVfHJe6tgLGW2Q-81" value="1" style="edgeLabel;html=1;align=center;verticalAlign=middle;resizable=0;points=[];" vertex="1" connectable="0" parent="31-5WdiVfHJe6tgLGW2Q-41">
          <mxGeometry x="0.671" y="-1" relative="1" as="geometry">
            <mxPoint y="7" as="offset" />
          </mxGeometry>
        </mxCell>
        <mxCell id="31-5WdiVfHJe6tgLGW2Q-57" style="edgeStyle=none;rounded=0;orthogonalLoop=1;jettySize=auto;html=1;exitX=0.25;exitY=0;exitDx=0;exitDy=0;endArrow=none;endFill=0;" edge="1" parent="1" source="31-5WdiVfHJe6tgLGW2Q-8" target="31-5WdiVfHJe6tgLGW2Q-55">
          <mxGeometry relative="1" as="geometry" />
        </mxCell>
        <mxCell id="31-5WdiVfHJe6tgLGW2Q-85" value="1" style="edgeLabel;html=1;align=center;verticalAlign=middle;resizable=0;points=[];" vertex="1" connectable="0" parent="31-5WdiVfHJe6tgLGW2Q-57">
          <mxGeometry x="0.7506" y="-3" relative="1" as="geometry">
            <mxPoint x="8" y="-3" as="offset" />
          </mxGeometry>
        </mxCell>
        <mxCell id="31-5WdiVfHJe6tgLGW2Q-77" style="edgeStyle=none;rounded=0;orthogonalLoop=1;jettySize=auto;html=1;exitX=0;exitY=0.25;exitDx=0;exitDy=0;entryX=1;entryY=0.5;entryDx=0;entryDy=0;endArrow=none;endFill=0;" edge="1" parent="1" source="31-5WdiVfHJe6tgLGW2Q-8" target="31-5WdiVfHJe6tgLGW2Q-76">
          <mxGeometry relative="1" as="geometry" />
        </mxCell>
        <mxCell id="31-5WdiVfHJe6tgLGW2Q-100" value="1" style="edgeLabel;html=1;align=center;verticalAlign=middle;resizable=0;points=[];" vertex="1" connectable="0" parent="31-5WdiVfHJe6tgLGW2Q-77">
          <mxGeometry x="0.7824" relative="1" as="geometry">
            <mxPoint y="-9" as="offset" />
          </mxGeometry>
        </mxCell>
        <mxCell id="31-5WdiVfHJe6tgLGW2Q-8" value="users" style="whiteSpace=wrap;html=1;align=center;" vertex="1" parent="1">
          <mxGeometry x="430" y="490" width="100" height="40" as="geometry" />
        </mxCell>
        <mxCell id="31-5WdiVfHJe6tgLGW2Q-52" style="edgeStyle=none;rounded=0;orthogonalLoop=1;jettySize=auto;html=1;exitX=0.5;exitY=0;exitDx=0;exitDy=0;endArrow=none;endFill=0;" edge="1" parent="1" source="31-5WdiVfHJe6tgLGW2Q-9" target="31-5WdiVfHJe6tgLGW2Q-8">
          <mxGeometry relative="1" as="geometry" />
        </mxCell>
        <mxCell id="31-5WdiVfHJe6tgLGW2Q-9" value="&lt;u&gt;email&lt;/u&gt;" style="ellipse;whiteSpace=wrap;html=1;align=center;" vertex="1" parent="1">
          <mxGeometry x="430" y="590" width="100" height="40" as="geometry" />
        </mxCell>
        <mxCell id="31-5WdiVfHJe6tgLGW2Q-53" style="edgeStyle=none;rounded=0;orthogonalLoop=1;jettySize=auto;html=1;exitX=0;exitY=0;exitDx=0;exitDy=0;endArrow=none;endFill=0;" edge="1" parent="1" source="31-5WdiVfHJe6tgLGW2Q-10" target="31-5WdiVfHJe6tgLGW2Q-8">
          <mxGeometry relative="1" as="geometry" />
        </mxCell>
        <mxCell id="31-5WdiVfHJe6tgLGW2Q-10" value="password" style="ellipse;whiteSpace=wrap;html=1;align=center;" vertex="1" parent="1">
          <mxGeometry x="550" y="560" width="100" height="40" as="geometry" />
        </mxCell>
        <mxCell id="31-5WdiVfHJe6tgLGW2Q-54" style="edgeStyle=none;rounded=0;orthogonalLoop=1;jettySize=auto;html=1;exitX=0;exitY=0.5;exitDx=0;exitDy=0;endArrow=none;endFill=0;" edge="1" parent="1" source="31-5WdiVfHJe6tgLGW2Q-11" target="31-5WdiVfHJe6tgLGW2Q-8">
          <mxGeometry relative="1" as="geometry" />
        </mxCell>
        <mxCell id="31-5WdiVfHJe6tgLGW2Q-11" value="name" style="ellipse;whiteSpace=wrap;html=1;align=center;" vertex="1" parent="1">
          <mxGeometry x="570" y="490" width="100" height="40" as="geometry" />
        </mxCell>
        <mxCell id="31-5WdiVfHJe6tgLGW2Q-14" value="shared_files" style="whiteSpace=wrap;html=1;align=center;" vertex="1" parent="1">
          <mxGeometry x="490" y="210" width="100" height="40" as="geometry" />
        </mxCell>
        <mxCell id="31-5WdiVfHJe6tgLGW2Q-71" style="edgeStyle=none;rounded=0;orthogonalLoop=1;jettySize=auto;html=1;exitX=0;exitY=0.5;exitDx=0;exitDy=0;endArrow=none;endFill=0;" edge="1" parent="1" source="31-5WdiVfHJe6tgLGW2Q-17" target="31-5WdiVfHJe6tgLGW2Q-14">
          <mxGeometry relative="1" as="geometry" />
        </mxCell>
        <mxCell id="31-5WdiVfHJe6tgLGW2Q-17" value="expiration_date&amp;nbsp;" style="ellipse;whiteSpace=wrap;html=1;align=center;" vertex="1" parent="1">
          <mxGeometry x="610" y="190" width="100" height="40" as="geometry" />
        </mxCell>
        <mxCell id="31-5WdiVfHJe6tgLGW2Q-19" value="licens_types" style="whiteSpace=wrap;html=1;align=center;" vertex="1" parent="1">
          <mxGeometry x="110" y="590" width="100" height="40" as="geometry" />
        </mxCell>
        <mxCell id="31-5WdiVfHJe6tgLGW2Q-50" style="edgeStyle=none;rounded=0;orthogonalLoop=1;jettySize=auto;html=1;exitX=0.5;exitY=0;exitDx=0;exitDy=0;endArrow=none;endFill=0;" edge="1" parent="1" source="31-5WdiVfHJe6tgLGW2Q-20" target="31-5WdiVfHJe6tgLGW2Q-19">
          <mxGeometry relative="1" as="geometry" />
        </mxCell>
        <mxCell id="31-5WdiVfHJe6tgLGW2Q-20" value="&lt;u&gt;type&lt;/u&gt;" style="ellipse;whiteSpace=wrap;html=1;align=center;" vertex="1" parent="1">
          <mxGeometry x="40" y="680" width="100" height="40" as="geometry" />
        </mxCell>
        <mxCell id="31-5WdiVfHJe6tgLGW2Q-51" style="edgeStyle=none;rounded=0;orthogonalLoop=1;jettySize=auto;html=1;exitX=0.5;exitY=0;exitDx=0;exitDy=0;endArrow=none;endFill=0;" edge="1" parent="1" source="31-5WdiVfHJe6tgLGW2Q-23" target="31-5WdiVfHJe6tgLGW2Q-19">
          <mxGeometry relative="1" as="geometry" />
        </mxCell>
        <mxCell id="31-5WdiVfHJe6tgLGW2Q-23" value="file_types" style="ellipse;shape=doubleEllipse;margin=3;whiteSpace=wrap;html=1;align=center;" vertex="1" parent="1">
          <mxGeometry x="160" y="680" width="100" height="40" as="geometry" />
        </mxCell>
        <mxCell id="31-5WdiVfHJe6tgLGW2Q-25" value="For the enterprise, the file_types is set to null, which means that all are allowed." style="shape=note;size=10;whiteSpace=wrap;html=1;" vertex="1" parent="1">
          <mxGeometry x="165" y="750" width="155" height="70" as="geometry" />
        </mxCell>
        <mxCell id="31-5WdiVfHJe6tgLGW2Q-103" style="edgeStyle=none;rounded=0;orthogonalLoop=1;jettySize=auto;html=1;exitX=0;exitY=0.5;exitDx=0;exitDy=0;endArrow=none;endFill=0;" edge="1" parent="1" source="31-5WdiVfHJe6tgLGW2Q-27" target="31-5WdiVfHJe6tgLGW2Q-44">
          <mxGeometry relative="1" as="geometry" />
        </mxCell>
        <mxCell id="31-5WdiVfHJe6tgLGW2Q-27" value="device_name" style="ellipse;whiteSpace=wrap;html=1;align=center;" vertex="1" parent="1">
          <mxGeometry x="790" y="340" width="100" height="40" as="geometry" />
        </mxCell>
        <mxCell id="31-5WdiVfHJe6tgLGW2Q-59" style="edgeStyle=none;rounded=0;orthogonalLoop=1;jettySize=auto;html=1;exitX=0.5;exitY=0;exitDx=0;exitDy=0;entryX=0;entryY=0;entryDx=0;entryDy=0;endArrow=none;endFill=0;" edge="1" parent="1" source="31-5WdiVfHJe6tgLGW2Q-28" target="31-5WdiVfHJe6tgLGW2Q-1">
          <mxGeometry relative="1" as="geometry" />
        </mxCell>
        <mxCell id="31-5WdiVfHJe6tgLGW2Q-92" value="N" style="edgeLabel;html=1;align=center;verticalAlign=middle;resizable=0;points=[];" vertex="1" connectable="0" parent="31-5WdiVfHJe6tgLGW2Q-59">
          <mxGeometry x="-0.4896" y="1" relative="1" as="geometry">
            <mxPoint x="-14" y="-8" as="offset" />
          </mxGeometry>
        </mxCell>
        <mxCell id="31-5WdiVfHJe6tgLGW2Q-60" style="edgeStyle=none;rounded=0;orthogonalLoop=1;jettySize=auto;html=1;exitX=0.5;exitY=1;exitDx=0;exitDy=0;entryX=0;entryY=1;entryDx=0;entryDy=0;endArrow=none;endFill=0;" edge="1" parent="1" source="31-5WdiVfHJe6tgLGW2Q-28" target="31-5WdiVfHJe6tgLGW2Q-1">
          <mxGeometry relative="1" as="geometry" />
        </mxCell>
        <mxCell id="31-5WdiVfHJe6tgLGW2Q-91" value="1" style="edgeLabel;html=1;align=center;verticalAlign=middle;resizable=0;points=[];" vertex="1" connectable="0" parent="31-5WdiVfHJe6tgLGW2Q-60">
          <mxGeometry x="-0.2405" y="2" relative="1" as="geometry">
            <mxPoint x="-19" y="13" as="offset" />
          </mxGeometry>
        </mxCell>
        <mxCell id="31-5WdiVfHJe6tgLGW2Q-28" value="update_files" style="shape=rhombus;perimeter=rhombusPerimeter;whiteSpace=wrap;html=1;align=center;" vertex="1" parent="1">
          <mxGeometry x="50" y="195" width="90" height="70" as="geometry" />
        </mxCell>
        <mxCell id="31-5WdiVfHJe6tgLGW2Q-32" style="edgeStyle=orthogonalEdgeStyle;rounded=0;orthogonalLoop=1;jettySize=auto;html=1;exitX=1;exitY=0.5;exitDx=0;exitDy=0;endArrow=none;endFill=0;shape=link;" edge="1" parent="1" source="31-5WdiVfHJe6tgLGW2Q-31" target="31-5WdiVfHJe6tgLGW2Q-14">
          <mxGeometry relative="1" as="geometry" />
        </mxCell>
        <mxCell id="31-5WdiVfHJe6tgLGW2Q-98" value="N" style="edgeLabel;html=1;align=center;verticalAlign=middle;resizable=0;points=[];" vertex="1" connectable="0" parent="31-5WdiVfHJe6tgLGW2Q-32">
          <mxGeometry x="-0.5704" relative="1" as="geometry">
            <mxPoint y="-10" as="offset" />
          </mxGeometry>
        </mxCell>
        <mxCell id="31-5WdiVfHJe6tgLGW2Q-33" style="edgeStyle=orthogonalEdgeStyle;rounded=0;orthogonalLoop=1;jettySize=auto;html=1;exitX=0;exitY=0.5;exitDx=0;exitDy=0;endArrow=none;endFill=0;" edge="1" parent="1" source="31-5WdiVfHJe6tgLGW2Q-31" target="31-5WdiVfHJe6tgLGW2Q-1">
          <mxGeometry relative="1" as="geometry" />
        </mxCell>
        <mxCell id="31-5WdiVfHJe6tgLGW2Q-97" value="1" style="edgeLabel;html=1;align=center;verticalAlign=middle;resizable=0;points=[];" vertex="1" connectable="0" parent="31-5WdiVfHJe6tgLGW2Q-33">
          <mxGeometry x="0.2593" y="-1" relative="1" as="geometry">
            <mxPoint x="15" y="-9" as="offset" />
          </mxGeometry>
        </mxCell>
        <mxCell id="31-5WdiVfHJe6tgLGW2Q-31" value="shared_with" style="shape=rhombus;perimeter=rhombusPerimeter;whiteSpace=wrap;html=1;align=center;double=1;" vertex="1" parent="1">
          <mxGeometry x="350" y="210" width="90" height="40" as="geometry" />
        </mxCell>
        <mxCell id="31-5WdiVfHJe6tgLGW2Q-38" style="edgeStyle=none;rounded=0;orthogonalLoop=1;jettySize=auto;html=1;exitX=0.5;exitY=0;exitDx=0;exitDy=0;endArrow=none;endFill=0;shape=link;" edge="1" parent="1" source="31-5WdiVfHJe6tgLGW2Q-34" target="31-5WdiVfHJe6tgLGW2Q-14">
          <mxGeometry relative="1" as="geometry" />
        </mxCell>
        <mxCell id="31-5WdiVfHJe6tgLGW2Q-84" value="1" style="edgeLabel;html=1;align=center;verticalAlign=middle;resizable=0;points=[];" vertex="1" connectable="0" parent="31-5WdiVfHJe6tgLGW2Q-38">
          <mxGeometry x="-0.6" y="-1" relative="1" as="geometry">
            <mxPoint x="14" as="offset" />
          </mxGeometry>
        </mxCell>
        <mxCell id="31-5WdiVfHJe6tgLGW2Q-34" value="shared_with" style="shape=rhombus;perimeter=rhombusPerimeter;whiteSpace=wrap;html=1;align=center;double=1;" vertex="1" parent="1">
          <mxGeometry x="450" y="320" width="120" height="60" as="geometry" />
        </mxCell>
        <mxCell id="31-5WdiVfHJe6tgLGW2Q-42" style="edgeStyle=none;rounded=0;orthogonalLoop=1;jettySize=auto;html=1;exitX=1;exitY=0;exitDx=0;exitDy=0;shape=link;" edge="1" parent="1">
          <mxGeometry relative="1" as="geometry">
            <mxPoint x="625" y="422.5" as="sourcePoint" />
            <mxPoint x="676" y="380" as="targetPoint" />
          </mxGeometry>
        </mxCell>
        <mxCell id="31-5WdiVfHJe6tgLGW2Q-82" value="N" style="edgeLabel;html=1;align=center;verticalAlign=middle;resizable=0;points=[];" vertex="1" connectable="0" parent="31-5WdiVfHJe6tgLGW2Q-42">
          <mxGeometry x="-0.3343" relative="1" as="geometry">
            <mxPoint x="18" y="2" as="offset" />
          </mxGeometry>
        </mxCell>
        <mxCell id="31-5WdiVfHJe6tgLGW2Q-44" value="computer" style="shape=ext;margin=3;double=1;whiteSpace=wrap;html=1;align=center;" vertex="1" parent="1">
          <mxGeometry x="640" y="340" width="100" height="40" as="geometry" />
        </mxCell>
        <mxCell id="31-5WdiVfHJe6tgLGW2Q-46" value="connected" style="shape=rhombus;double=1;perimeter=rhombusPerimeter;whiteSpace=wrap;html=1;align=center;" vertex="1" parent="1">
          <mxGeometry x="540" y="400" width="120" height="60" as="geometry" />
        </mxCell>
        <mxCell id="31-5WdiVfHJe6tgLGW2Q-48" style="edgeStyle=none;rounded=0;orthogonalLoop=1;jettySize=auto;html=1;exitX=0;exitY=0.5;exitDx=0;exitDy=0;endArrow=none;endFill=0;" edge="1" parent="1" source="31-5WdiVfHJe6tgLGW2Q-47" target="31-5WdiVfHJe6tgLGW2Q-19">
          <mxGeometry relative="1" as="geometry" />
        </mxCell>
        <mxCell id="31-5WdiVfHJe6tgLGW2Q-80" value="1" style="edgeLabel;html=1;align=center;verticalAlign=middle;resizable=0;points=[];" vertex="1" connectable="0" parent="31-5WdiVfHJe6tgLGW2Q-48">
          <mxGeometry x="-0.57" y="1" relative="1" as="geometry">
            <mxPoint x="-4" y="-11" as="offset" />
          </mxGeometry>
        </mxCell>
        <mxCell id="31-5WdiVfHJe6tgLGW2Q-49" style="edgeStyle=none;rounded=0;orthogonalLoop=1;jettySize=auto;html=1;exitX=1;exitY=0.5;exitDx=0;exitDy=0;endArrow=none;endFill=0;" edge="1" parent="1" source="31-5WdiVfHJe6tgLGW2Q-47" target="31-5WdiVfHJe6tgLGW2Q-8">
          <mxGeometry relative="1" as="geometry" />
        </mxCell>
        <mxCell id="31-5WdiVfHJe6tgLGW2Q-79" value="N" style="edgeLabel;html=1;align=center;verticalAlign=middle;resizable=0;points=[];" vertex="1" connectable="0" parent="31-5WdiVfHJe6tgLGW2Q-49">
          <mxGeometry x="-0.7146" y="1" relative="1" as="geometry">
            <mxPoint x="-10" y="-8" as="offset" />
          </mxGeometry>
        </mxCell>
        <mxCell id="31-5WdiVfHJe6tgLGW2Q-47" value="license_user" style="shape=rhombus;perimeter=rhombusPerimeter;whiteSpace=wrap;html=1;align=center;" vertex="1" parent="1">
          <mxGeometry x="260" y="580" width="120" height="60" as="geometry" />
        </mxCell>
        <mxCell id="31-5WdiVfHJe6tgLGW2Q-56" style="edgeStyle=none;rounded=0;orthogonalLoop=1;jettySize=auto;html=1;exitX=0;exitY=0;exitDx=0;exitDy=0;endArrow=none;endFill=0;" edge="1" parent="1" source="31-5WdiVfHJe6tgLGW2Q-55" target="31-5WdiVfHJe6tgLGW2Q-1">
          <mxGeometry relative="1" as="geometry" />
        </mxCell>
        <mxCell id="31-5WdiVfHJe6tgLGW2Q-86" value="N" style="edgeLabel;html=1;align=center;verticalAlign=middle;resizable=0;points=[];" vertex="1" connectable="0" parent="31-5WdiVfHJe6tgLGW2Q-56">
          <mxGeometry x="-0.7094" y="-1" relative="1" as="geometry">
            <mxPoint x="14" y="-5" as="offset" />
          </mxGeometry>
        </mxCell>
        <mxCell id="31-5WdiVfHJe6tgLGW2Q-55" value="uploads" style="shape=rhombus;perimeter=rhombusPerimeter;whiteSpace=wrap;html=1;align=center;" vertex="1" parent="1">
          <mxGeometry x="310" y="350" width="100" height="50" as="geometry" />
        </mxCell>
        <mxCell id="31-5WdiVfHJe6tgLGW2Q-62" style="edgeStyle=none;rounded=0;orthogonalLoop=1;jettySize=auto;html=1;exitX=1;exitY=0.5;exitDx=0;exitDy=0;endArrow=none;endFill=0;" edge="1" parent="1" source="31-5WdiVfHJe6tgLGW2Q-61" target="31-5WdiVfHJe6tgLGW2Q-28">
          <mxGeometry relative="1" as="geometry" />
        </mxCell>
        <mxCell id="31-5WdiVfHJe6tgLGW2Q-61" value="version_number" style="ellipse;whiteSpace=wrap;html=1;align=center;" vertex="1" parent="1">
          <mxGeometry x="-110" y="180" width="100" height="40" as="geometry" />
        </mxCell>
        <mxCell id="31-5WdiVfHJe6tgLGW2Q-64" style="edgeStyle=none;rounded=0;orthogonalLoop=1;jettySize=auto;html=1;endArrow=none;endFill=0;" edge="1" parent="1" target="31-5WdiVfHJe6tgLGW2Q-1">
          <mxGeometry relative="1" as="geometry">
            <mxPoint x="205" y="313" as="sourcePoint" />
          </mxGeometry>
        </mxCell>
        <mxCell id="31-5WdiVfHJe6tgLGW2Q-87" value="N" style="edgeLabel;html=1;align=center;verticalAlign=middle;resizable=0;points=[];" vertex="1" connectable="0" parent="31-5WdiVfHJe6tgLGW2Q-64">
          <mxGeometry x="-0.659" y="-2" relative="1" as="geometry">
            <mxPoint x="16" as="offset" />
          </mxGeometry>
        </mxCell>
        <mxCell id="31-5WdiVfHJe6tgLGW2Q-65" style="edgeStyle=none;rounded=0;orthogonalLoop=1;jettySize=auto;html=1;exitX=0;exitY=1;exitDx=0;exitDy=0;entryX=0.75;entryY=0;entryDx=0;entryDy=0;endArrow=none;endFill=0;" edge="1" parent="1" source="31-5WdiVfHJe6tgLGW2Q-63" target="31-5WdiVfHJe6tgLGW2Q-3">
          <mxGeometry relative="1" as="geometry" />
        </mxCell>
        <mxCell id="31-5WdiVfHJe6tgLGW2Q-88" value="1" style="edgeLabel;html=1;align=center;verticalAlign=middle;resizable=0;points=[];" vertex="1" connectable="0" parent="31-5WdiVfHJe6tgLGW2Q-65">
          <mxGeometry x="-0.5762" y="1" relative="1" as="geometry">
            <mxPoint x="8" y="5" as="offset" />
          </mxGeometry>
        </mxCell>
        <mxCell id="31-5WdiVfHJe6tgLGW2Q-63" value="is_inside" style="shape=rhombus;perimeter=rhombusPerimeter;whiteSpace=wrap;html=1;align=center;" vertex="1" parent="1">
          <mxGeometry x="130" y="300" width="100" height="50" as="geometry" />
        </mxCell>
        <mxCell id="31-5WdiVfHJe6tgLGW2Q-72" value="shared_files" style="shape=ext;margin=3;double=1;whiteSpace=wrap;html=1;align=center;" vertex="1" parent="1">
          <mxGeometry x="490" y="210" width="100" height="40" as="geometry" />
        </mxCell>
        <mxCell id="31-5WdiVfHJe6tgLGW2Q-73" value="is_inside" style="shape=rhombus;perimeter=rhombusPerimeter;whiteSpace=wrap;html=1;align=center;" vertex="1" parent="1">
          <mxGeometry x="10" y="510" width="140" height="50" as="geometry" />
        </mxCell>
        <mxCell id="31-5WdiVfHJe6tgLGW2Q-78" style="edgeStyle=none;rounded=0;orthogonalLoop=1;jettySize=auto;html=1;exitX=0;exitY=0.5;exitDx=0;exitDy=0;entryX=1;entryY=0.5;entryDx=0;entryDy=0;endArrow=none;endFill=0;" edge="1" parent="1" source="31-5WdiVfHJe6tgLGW2Q-76" target="31-5WdiVfHJe6tgLGW2Q-3">
          <mxGeometry relative="1" as="geometry" />
        </mxCell>
        <mxCell id="31-5WdiVfHJe6tgLGW2Q-101" value="N" style="edgeLabel;html=1;align=center;verticalAlign=middle;resizable=0;points=[];" vertex="1" connectable="0" parent="31-5WdiVfHJe6tgLGW2Q-78">
          <mxGeometry x="-0.6503" y="-1" relative="1" as="geometry">
            <mxPoint x="15" y="-11" as="offset" />
          </mxGeometry>
        </mxCell>
        <mxCell id="31-5WdiVfHJe6tgLGW2Q-76" value="owns" style="shape=rhombus;perimeter=rhombusPerimeter;whiteSpace=wrap;html=1;align=center;" vertex="1" parent="1">
          <mxGeometry x="210" y="440" width="100" height="50" as="geometry" />
        </mxCell>
        <mxCell id="31-5WdiVfHJe6tgLGW2Q-93" value="Original" style="text;html=1;align=center;verticalAlign=middle;resizable=0;points=[];autosize=1;strokeColor=none;fillColor=none;" vertex="1" parent="1">
          <mxGeometry x="130" y="265" width="60" height="30" as="geometry" />
        </mxCell>
        <mxCell id="31-5WdiVfHJe6tgLGW2Q-95" value="Versions" style="text;html=1;align=center;verticalAlign=middle;resizable=0;points=[];autosize=1;strokeColor=none;fillColor=none;" vertex="1" parent="1">
          <mxGeometry x="105" y="180" width="70" height="30" as="geometry" />
        </mxCell>
        <mxCell id="31-5WdiVfHJe6tgLGW2Q-99" value="To simplify, a new entry to shared_files needs to be created each time the user wants to share a file, even if it is the same file with different users" style="shape=note;size=10;whiteSpace=wrap;html=1;" vertex="1" parent="1">
          <mxGeometry x="455" y="90" width="190" height="80" as="geometry" />
        </mxCell>
        <mxCell id="31-5WdiVfHJe6tgLGW2Q-104" value="Subfolder" style="text;html=1;align=center;verticalAlign=middle;resizable=0;points=[];autosize=1;strokeColor=none;fillColor=none;" vertex="1" parent="1">
          <mxGeometry x="-65" y="500" width="70" height="30" as="geometry" />
        </mxCell>
        <mxCell id="31-5WdiVfHJe6tgLGW2Q-105" value="Parentfolder" style="text;html=1;align=center;verticalAlign=middle;resizable=0;points=[];autosize=1;strokeColor=none;fillColor=none;" vertex="1" parent="1">
          <mxGeometry x="135" y="495" width="90" height="30" as="geometry" />
        </mxCell>
        <mxCell id="31-5WdiVfHJe6tgLGW2Q-108" style="edgeStyle=none;rounded=0;orthogonalLoop=1;jettySize=auto;html=1;exitX=1;exitY=0;exitDx=0;exitDy=0;" edge="1" parent="1" source="31-5WdiVfHJe6tgLGW2Q-106" target="31-5WdiVfHJe6tgLGW2Q-19">
          <mxGeometry relative="1" as="geometry" />
        </mxCell>
        <mxCell id="31-5WdiVfHJe6tgLGW2Q-106" value="computer_amount" style="ellipse;whiteSpace=wrap;html=1;align=center;" vertex="1" parent="1">
          <mxGeometry x="-40" y="650" width="100" height="40" as="geometry" />
        </mxCell>
      </root>
    </mxGraphModel>
  </diagram>
</mxfile>
